# xmcd CD database file generated by OrangeCD 5.2
#
# Track frame offsets:
#	150
#	16170
#	30962
#	44060
#	61867
#	75215
#	94670
#	108787
#	124155
#	138005
#	153497
#	168817
#	186222
#
# Disc length: 2698 seconds
#
# Revision: 2
# Processed by: cddbd v1.5.1PL0 Copyright (c) Steve Scherf et al.
# Submitted via: OrangeCD 5.2
#
DISCID=8e0a880d
DTITLE=Geirmundur Valtýsson - Á fullri ferð
DYEAR=1991
DGENRE=Rock
TTITLE0=Ég hef bara áhuga á þér
TTITLE1=Fyrir eitt bros
TTITLE2=Helgin er að koma
TTITLE3=Tifar tímans hjól
TTITLE4=Nú er ég léttur
TTITLE5=Gef mér frið
TTITLE6=Á fullri ferð
TTITLE7=Segðu mér
TTITLE8=Með þér
TTITLE9=Í sumar og sól
TTITLE10=Ég bíð þín
TTITLE11=Þjóðhátíð í Eyjum
TTITLE12=Nú kveð ég allt
EXTD=
EXTT0=
EXTT1=
EXTT2=
EXTT3=
EXTT4=
EXTT5=
EXTT6=
EXTT7=
EXTT8=
EXTT9=
EXTT10=
EXTT11=
EXTT12=
PLAYORDER=
